<svg aria-roledescription="flowchart-v2" role="graphics-document document" viewBox="-8 -8 1204 2780" style="max-width: 1204px;" xmlns="http://www.w3.org/2000/svg" width="1204" id="svg" height="2780"><style>#svg{font-family:"trebuchet ms",verdana,arial,sans-serif;font-size:16px;fill:#333;}#svg .error-icon{fill:#552222;}#svg .error-text{fill:#552222;stroke:#552222;}#svg .edge-thickness-normal{stroke-width:2px;}#svg .edge-thickness-thick{stroke-width:3.5px;}#svg .edge-pattern-solid{stroke-dasharray:0;}#svg .edge-pattern-dashed{stroke-dasharray:3;}#svg .edge-pattern-dotted{stroke-dasharray:2;}#svg .marker{fill:#333333;stroke:#333333;}#svg .marker.cross{stroke:#333333;}#svg svg{font-family:"trebuchet ms",verdana,arial,sans-serif;font-size:16px;}#svg .label{font-family:"trebuchet ms",verdana,arial,sans-serif;color:#333;}#svg .cluster-label text{fill:#333;}#svg .cluster-label span,#svg p{color:#333;}#svg .label text,#svg span,#svg p{fill:#333;color:#333;}#svg .node rect,#svg .node circle,#svg .node ellipse,#svg .node polygon,#svg .node path{fill:#ECECFF;stroke:#9370DB;stroke-width:1px;}#svg .flowchart-label text{text-anchor:middle;}#svg .node .katex path{fill:#000;stroke:#000;stroke-width:1px;}#svg .node .label{text-align:center;}#svg .node.clickable{cursor:pointer;}#svg .arrowheadPath{fill:#333333;}#svg .edgePath .path{stroke:#333333;stroke-width:2.0px;}#svg .flowchart-link{stroke:#333333;fill:none;}#svg .edgeLabel{background-color:#e8e8e8;text-align:center;}#svg .edgeLabel rect{opacity:0.5;background-color:#e8e8e8;fill:#e8e8e8;}#svg .labelBkg{background-color:rgba(232, 232, 232, 0.5);}#svg .cluster rect{fill:#ffffde;stroke:#aaaa33;stroke-width:1px;}#svg .cluster text{fill:#333;}#svg .cluster span,#svg p{color:#333;}#svg div.mermaidTooltip{position:absolute;text-align:center;max-width:200px;padding:2px;font-family:"trebuchet ms",verdana,arial,sans-serif;font-size:12px;background:hsl(80, 100%, 96.2745098039%);border:1px solid #aaaa33;border-radius:2px;pointer-events:none;z-index:100;}#svg .flowchartTitleText{text-anchor:middle;font-size:18px;fill:#333;}#svg .today{display:none;}#svg .label foreignObject{overflow:visible;}#svg :root{--mermaid-font-family:"trebuchet ms",verdana,arial,sans-serif;}</style><g><marker orient="auto" markerHeight="12" markerWidth="12" markerUnits="userSpaceOnUse" refY="5" refX="6" viewBox="0 0 10 10" class="marker flowchart" id="svg_flowchart-pointEnd"><path style="stroke-width: 1; stroke-dasharray: 1, 0;" class="arrowMarkerPath" d="M 0 0 L 10 5 L 0 10 z"></path></marker><marker orient="auto" markerHeight="12" markerWidth="12" markerUnits="userSpaceOnUse" refY="5" refX="4.5" viewBox="0 0 10 10" class="marker flowchart" id="svg_flowchart-pointStart"><path style="stroke-width: 1; stroke-dasharray: 1, 0;" class="arrowMarkerPath" d="M 0 5 L 10 10 L 10 0 z"></path></marker><marker orient="auto" markerHeight="11" markerWidth="11" markerUnits="userSpaceOnUse" refY="5" refX="11" viewBox="0 0 10 10" class="marker flowchart" id="svg_flowchart-circleEnd"><circle style="stroke-width: 1; stroke-dasharray: 1, 0;" class="arrowMarkerPath" r="5" cy="5" cx="5"></circle></marker><marker orient="auto" markerHeight="11" markerWidth="11" markerUnits="userSpaceOnUse" refY="5" refX="-1" viewBox="0 0 10 10" class="marker flowchart" id="svg_flowchart-circleStart"><circle style="stroke-width: 1; stroke-dasharray: 1, 0;" class="arrowMarkerPath" r="5" cy="5" cx="5"></circle></marker><marker orient="auto" markerHeight="11" markerWidth="11" markerUnits="userSpaceOnUse" refY="5.2" refX="12" viewBox="0 0 11 11" class="marker cross flowchart" id="svg_flowchart-crossEnd"><path style="stroke-width: 2; stroke-dasharray: 1, 0;" class="arrowMarkerPath" d="M 1,1 l 9,9 M 10,1 l -9,9"></path></marker><marker orient="auto" markerHeight="11" markerWidth="11" markerUnits="userSpaceOnUse" refY="5.2" refX="-1" viewBox="0 0 11 11" class="marker cross flowchart" id="svg_flowchart-crossStart"><path style="stroke-width: 2; stroke-dasharray: 1, 0;" class="arrowMarkerPath" d="M 1,1 l 9,9 M 10,1 l -9,9"></path></marker><g class="root"><g class="clusters"><g id="结果处理" class="cluster default flowchart-label"><rect height="197" width="471" y="2456" x="0" ry="0" rx="0" style=""></rect><g transform="translate(203.5, 2456)" class="cluster-label"><foreignObject height="21" width="64"><div style="display: inline-block; white-space: nowrap;" xmlns="http://www.w3.org/1999/xhtml"><span class="nodeLabel">结果处理</span></div></foreignObject></g></g><g id="状态维护" class="cluster default flowchart-label"><rect height="197" width="567" y="2567" x="491" ry="0" rx="0" style=""></rect><g transform="translate(742.5, 2567)" class="cluster-label"><foreignObject height="21" width="64"><div style="display: inline-block; white-space: nowrap;" xmlns="http://www.w3.org/1999/xhtml"><span class="nodeLabel">状态维护</span></div></foreignObject></g></g></g><g class="edgePaths"><path marker-end="url(#svg_flowchart-pointEnd)" style="fill:none;" class="edge-thickness-normal edge-pattern-solid flowchart-link LS-A LE-B" id="L-A-B-0" d="M189.75,36L189.75,40.167C189.75,44.333,189.75,52.667,189.75,60.117C189.75,67.567,189.75,74.133,189.75,77.417L189.75,80.7"></path><path marker-end="url(#svg_flowchart-pointEnd)" style="fill:none;" class="edge-thickness-normal edge-pattern-solid flowchart-link LS-B LE-C" id="L-B-C-0" d="M189.75,122L189.75,126.167C189.75,130.333,189.75,138.667,189.816,146.2C189.882,153.734,190.014,160.467,190.08,163.834L190.146,167.201"></path><path marker-end="url(#svg_flowchart-pointEnd)" style="fill:none;" class="edge-thickness-normal edge-pattern-solid flowchart-link LS-C LE-D" id="L-C-D-0" d="M147.343,317.593L136.286,330.578C125.229,343.562,103.114,369.531,92.057,387.549C81,405.567,81,415.633,81,420.667L81,425.7"></path><path marker-end="url(#svg_flowchart-pointEnd)" style="fill:none;" class="edge-thickness-normal edge-pattern-solid flowchart-link LS-C LE-E" id="L-C-E-0" d="M233.157,317.593L244.047,330.578C254.938,343.562,276.719,369.531,287.609,387.549C298.5,405.567,298.5,415.633,298.5,420.667L298.5,425.7"></path><path marker-end="url(#svg_flowchart-pointEnd)" style="fill:none;" class="edge-thickness-normal edge-pattern-solid flowchart-link LS-E LE-F" id="L-E-F-0" d="M298.5,467L298.5,471.167C298.5,475.333,298.5,483.667,298.5,491.117C298.5,498.567,298.5,505.133,298.5,508.417L298.5,511.7"></path><path marker-end="url(#svg_flowchart-pointEnd)" style="fill:none;" class="edge-thickness-normal edge-pattern-solid flowchart-link LS-F LE-G" id="L-F-G-0" d="M271.919,553L265.766,557.167C259.612,561.333,247.306,569.667,241.219,577.2C235.132,584.734,235.264,591.467,235.33,594.834L235.396,598.201"></path><path marker-end="url(#svg_flowchart-pointEnd)" style="fill:none;" class="edge-thickness-normal edge-pattern-solid flowchart-link LS-G LE-H" id="L-G-H-0" d="M205.097,729.097L197.997,739.997C190.898,750.898,176.699,772.699,169.599,788.633C162.5,804.567,162.5,814.633,162.5,819.667L162.5,824.7"></path><path marker-end="url(#svg_flowchart-pointEnd)" style="fill:none;" class="edge-thickness-normal edge-pattern-solid flowchart-link LS-G LE-I" id="L-G-I-0" d="M265.903,729.097L272.836,739.997C279.769,750.898,293.634,772.699,300.567,788.633C307.5,804.567,307.5,814.633,307.5,819.667L307.5,824.7"></path><path marker-end="url(#svg_flowchart-pointEnd)" style="fill:none;" class="edge-thickness-normal edge-pattern-solid flowchart-link LS-I LE-J" id="L-I-J-0" d="M307.5,866L307.5,870.167C307.5,874.333,307.5,882.667,307.5,890.117C307.5,897.567,307.5,904.133,307.5,907.417L307.5,910.7"></path><path marker-end="url(#svg_flowchart-pointEnd)" style="fill:none;" class="edge-thickness-normal edge-pattern-solid flowchart-link LS-J LE-K" id="L-J-K-0" d="M307.5,952L307.5,956.167C307.5,960.333,307.5,968.667,307.566,976.2C307.632,983.734,307.764,990.467,307.83,993.834L307.896,997.201"></path><path marker-end="url(#svg_flowchart-pointEnd)" style="fill:none;" class="edge-thickness-normal edge-pattern-solid flowchart-link LS-K LE-L" id="L-K-L-0" d="M295.437,1104.937L293.114,1112.864C290.791,1120.791,286.146,1136.646,283.823,1149.606C281.5,1162.567,281.5,1172.633,281.5,1177.667L281.5,1182.7"></path><path marker-end="url(#svg_flowchart-pointEnd)" style="fill:none;" class="edge-thickness-normal edge-pattern-solid flowchart-link LS-K LE-M" id="L-K-M-0" d="M335.373,1090.127L344.811,1100.522C354.249,1110.918,373.124,1131.709,388.909,1147.452C404.694,1163.195,417.388,1173.89,423.735,1179.238L430.082,1184.585"></path><path marker-end="url(#svg_flowchart-pointEnd)" style="fill:none;" class="edge-thickness-normal edge-pattern-solid flowchart-link LS-M LE-F" id="L-M-F-0" d="M461.556,1188L463.547,1182.083C465.537,1176.167,469.519,1164.333,471.509,1142.917C473.5,1121.5,473.5,1090.5,473.5,1061.25C473.5,1032,473.5,1004.5,473.5,983.583C473.5,962.667,473.5,948.333,473.5,934C473.5,919.667,473.5,905.333,473.5,891C473.5,876.667,473.5,862.333,473.5,846.25C473.5,830.167,473.5,812.333,473.5,784.5C473.5,756.667,473.5,718.833,473.5,682.75C473.5,646.667,473.5,612.333,454.441,590.484C435.382,568.634,397.265,559.268,378.206,554.585L359.147,549.902"></path><path marker-end="url(#svg_flowchart-pointEnd)" style="fill:none;" class="edge-thickness-normal edge-pattern-solid flowchart-link LS-M LE-N" id="L-M-N-0" d="M455.5,1224L455.5,1228.167C455.5,1232.333,455.5,1240.667,455.5,1248.117C455.5,1255.567,455.5,1262.133,455.5,1265.417L455.5,1268.7"></path><path marker-end="url(#svg_flowchart-pointEnd)" style="fill:none;" class="edge-thickness-normal edge-pattern-solid flowchart-link LS-N LE-O" id="L-N-O-0" d="M455.5,1310L455.5,1314.167C455.5,1318.333,455.5,1326.667,455.566,1334.2C455.632,1341.734,455.764,1348.467,455.83,1351.834L455.896,1355.201"></path><path marker-end="url(#svg_flowchart-pointEnd)" style="fill:none;" class="edge-thickness-normal edge-pattern-solid flowchart-link LS-O LE-P" id="L-O-P-0" d="M426.399,1477.899L418.999,1488.666C411.599,1499.432,396.8,1520.966,389.4,1543.35C382,1565.733,382,1588.967,382,1600.583L382,1612.2"></path><path marker-end="url(#svg_flowchart-pointEnd)" style="fill:none;" class="edge-thickness-normal edge-pattern-solid flowchart-link LS-O LE-Q" id="L-O-Q-0" d="M485.601,1477.899L492.834,1488.666C500.068,1499.432,514.534,1520.966,521.838,1536.85C529.142,1552.734,529.284,1562.967,529.355,1568.084L529.426,1573.201"></path><path marker-end="url(#svg_flowchart-pointEnd)" style="fill:none;" class="edge-thickness-normal edge-pattern-solid flowchart-link LS-Q LE-R" id="L-Q-R-0" d="M529.5,1693.5L529.417,1697.583C529.333,1701.667,529.167,1709.833,529.149,1717.284C529.132,1724.734,529.264,1731.467,529.33,1734.834L529.396,1738.201"></path><path marker-end="url(#svg_flowchart-pointEnd)" style="fill:none;" class="edge-thickness-normal edge-pattern-solid flowchart-link LS-R LE-S" id="L-R-S-0" d="M507.267,1877.267L503.347,1886.806C499.428,1896.345,491.589,1915.422,487.669,1929.994C483.75,1944.567,483.75,1954.633,483.75,1959.667L483.75,1964.7"></path><path marker-end="url(#svg_flowchart-pointEnd)" style="fill:none;" class="edge-thickness-normal edge-pattern-solid flowchart-link LS-S LE-T" id="L-S-T-0" d="M483.75,2006L483.75,2011.917C483.75,2017.833,483.75,2029.667,483.75,2040.617C483.75,2051.567,483.75,2061.633,483.75,2066.667L483.75,2071.7"></path><path marker-end="url(#svg_flowchart-pointEnd)" style="fill:none;" class="edge-thickness-normal edge-pattern-solid flowchart-link LS-T LE-U" id="L-T-U-0" d="M475.002,2113L472.127,2118.917C469.252,2124.833,463.501,2136.667,460.625,2147.617C457.75,2158.567,457.75,2168.633,457.75,2173.667L457.75,2178.7"></path><path marker-end="url(#svg_flowchart-pointEnd)" style="fill:none;" class="edge-thickness-normal edge-pattern-solid flowchart-link LS-T LE-V" id="L-T-V-0" d="M505.451,2113L512.584,2118.917C519.717,2124.833,533.984,2136.667,545.551,2147.826C557.118,2158.984,565.985,2169.469,570.419,2174.711L574.853,2179.953"></path><path marker-end="url(#svg_flowchart-pointEnd)" style="fill:none;" class="edge-thickness-normal edge-pattern-solid flowchart-link LS-R LE-V" id="L-R-V-0" d="M562.332,1866.668L570.526,1877.974C578.721,1889.279,595.111,1911.889,603.305,1932.111C611.5,1952.333,611.5,1970.167,611.5,1988C611.5,2005.833,611.5,2023.667,611.5,2041.5C611.5,2059.333,611.5,2077.167,611.5,2095C611.5,2112.833,611.5,2130.667,609.791,2144.663C608.082,2158.659,604.664,2168.818,602.955,2173.897L601.246,2178.977"></path><path marker-end="url(#svg_flowchart-pointEnd)" style="fill:none;" class="edge-thickness-normal edge-pattern-solid flowchart-link LS-V LE-W" id="L-V-W-0" d="M593.5,2220L593.5,2224.167C593.5,2228.333,593.5,2236.667,593.566,2244.2C593.632,2251.734,593.764,2258.467,593.83,2261.834L593.896,2265.201"></path><path marker-end="url(#svg_flowchart-pointEnd)" style="fill:none;" class="edge-thickness-normal edge-pattern-solid flowchart-link LS-W LE-X" id="L-W-X-0" d="M550.856,2342.356L511.38,2355.38C471.904,2368.404,392.952,2394.452,353.476,2413.393C314,2432.333,314,2444.167,314,2453.367C314,2462.567,314,2469.133,314,2472.417L314,2475.7"></path><path marker-end="url(#svg_flowchart-pointEnd)" style="fill:none;" class="edge-thickness-normal edge-pattern-solid flowchart-link LS-W LE-Y" id="L-W-Y-0" d="M636.067,2343.433L671.223,2356.277C706.378,2369.122,776.689,2394.811,811.845,2413.572C847,2432.333,847,2444.167,847,2453.367C847,2462.567,847,2469.133,847,2472.417L847,2475.7"></path><path marker-end="url(#svg_flowchart-pointEnd)" style="fill:none;" class="edge-thickness-normal edge-pattern-solid flowchart-link LS-X LE-Z" id="L-X-Z-0" d="M353.5,2514.199L365.542,2518.833C377.583,2523.466,401.667,2532.733,413.708,2541.533C425.75,2550.333,425.75,2558.667,485.83,2568.966C545.909,2579.266,666.068,2591.531,726.148,2597.664L786.227,2603.797"></path><path marker-end="url(#svg_flowchart-pointEnd)" style="fill:none;" class="edge-thickness-normal edge-pattern-solid flowchart-link LS-Y LE-Z" id="L-Y-Z-0" d="M847,2517L847,2521.167C847,2525.333,847,2533.667,847,2542C847,2550.333,847,2558.667,847,2566.117C847,2573.567,847,2580.133,847,2583.417L847,2586.7"></path><path marker-end="url(#svg_flowchart-pointEnd)" style="fill:none;" class="edge-thickness-normal edge-pattern-solid flowchart-link LS-Z LE-AA" id="L-Z-AA-0" d="M902.5,2625.128L919.542,2629.774C936.583,2634.419,970.667,2643.709,987.708,2652.521C1004.75,2661.333,1004.75,2669.667,1018.616,2678.226C1032.482,2686.785,1060.215,2695.569,1074.081,2699.961L1087.947,2704.354"></path><path marker-end="url(#svg_flowchart-pointEnd)" style="fill:none;" class="edge-thickness-normal edge-pattern-solid flowchart-link LS-Z LE-BB" id="L-Z-BB-0" d="M791.5,2618.989L756.5,2624.657C721.5,2630.326,651.5,2641.663,616.5,2651.498C581.5,2661.333,581.5,2669.667,581.5,2677.117C581.5,2684.567,581.5,2691.133,581.5,2694.417L581.5,2697.7"></path><path marker-end="url(#svg_flowchart-pointEnd)" style="fill:none;" class="edge-thickness-normal edge-pattern-solid flowchart-link LS-Z LE-CC" id="L-Z-CC-0" d="M809.953,2628L801.378,2632.167C792.802,2636.333,775.651,2644.667,767.076,2653C758.5,2661.333,758.5,2669.667,758.5,2677.117C758.5,2684.567,758.5,2691.133,758.5,2694.417L758.5,2697.7"></path><path marker-end="url(#svg_flowchart-pointEnd)" style="fill:none;" class="edge-thickness-normal edge-pattern-solid flowchart-link LS-Z LE-DD" id="L-Z-DD-0" d="M890.744,2628L900.87,2632.167C910.996,2636.333,931.248,2644.667,941.374,2653C951.5,2661.333,951.5,2669.667,951.5,2677.117C951.5,2684.567,951.5,2691.133,951.5,2694.417L951.5,2697.7"></path><path marker-end="url(#svg_flowchart-pointEnd)" style="fill:none;" class="edge-thickness-normal edge-pattern-solid flowchart-link LS-X LE-EE" id="L-X-EE-0" d="M274.5,2506.6L243.833,2512.5C213.167,2518.4,151.833,2530.2,121.167,2540.267C90.5,2550.333,90.5,2558.667,90.5,2566.117C90.5,2573.567,90.5,2580.133,90.5,2583.417L90.5,2586.7"></path><path marker-end="url(#svg_flowchart-pointEnd)" style="fill:none;" class="edge-thickness-normal edge-pattern-solid flowchart-link LS-X LE-FF" id="L-X-FF-0" d="M281.14,2517L273.533,2521.167C265.926,2525.333,250.713,2533.667,243.107,2542C235.5,2550.333,235.5,2558.667,235.5,2566.117C235.5,2573.567,235.5,2580.133,235.5,2583.417L235.5,2586.7"></path><path marker-end="url(#svg_flowchart-pointEnd)" style="fill:none;" class="edge-thickness-normal edge-pattern-solid flowchart-link LS-X LE-GG" id="L-X-GG-0" d="M341.837,2517L348.281,2521.167C354.725,2525.333,367.612,2533.667,374.056,2542C380.5,2550.333,380.5,2558.667,380.5,2566.117C380.5,2573.567,380.5,2580.133,380.5,2583.417L380.5,2586.7"></path></g><g class="edgeLabels"><g class="edgeLabel"><g transform="translate(0, 0)" class="label"><foreignObject height="0" width="0"><div style="display: inline-block; white-space: nowrap;" xmlns="http://www.w3.org/1999/xhtml"><span class="edgeLabel"></span></div></foreignObject></g></g><g class="edgeLabel"><g transform="translate(0, 0)" class="label"><foreignObject height="0" width="0"><div style="display: inline-block; white-space: nowrap;" xmlns="http://www.w3.org/1999/xhtml"><span class="edgeLabel"></span></div></foreignObject></g></g><g transform="translate(81, 395.5)" class="edgeLabel"><g transform="translate(-8, -10.5)" class="label"><foreignObject height="21" width="16"><div style="display: inline-block; white-space: nowrap;" xmlns="http://www.w3.org/1999/xhtml"><span class="edgeLabel">否</span></div></foreignObject></g></g><g transform="translate(298.5, 395.5)" class="edgeLabel"><g transform="translate(-8, -10.5)" class="label"><foreignObject height="21" width="16"><div style="display: inline-block; white-space: nowrap;" xmlns="http://www.w3.org/1999/xhtml"><span class="edgeLabel">是</span></div></foreignObject></g></g><g class="edgeLabel"><g transform="translate(0, 0)" class="label"><foreignObject height="0" width="0"><div style="display: inline-block; white-space: nowrap;" xmlns="http://www.w3.org/1999/xhtml"><span class="edgeLabel"></span></div></foreignObject></g></g><g class="edgeLabel"><g transform="translate(0, 0)" class="label"><foreignObject height="0" width="0"><div style="display: inline-block; white-space: nowrap;" xmlns="http://www.w3.org/1999/xhtml"><span class="edgeLabel"></span></div></foreignObject></g></g><g transform="translate(162.5, 794.5)" class="edgeLabel"><g transform="translate(-8, -10.5)" class="label"><foreignObject height="21" width="16"><div style="display: inline-block; white-space: nowrap;" xmlns="http://www.w3.org/1999/xhtml"><span class="edgeLabel">否</span></div></foreignObject></g></g><g transform="translate(307.5, 794.5)" class="edgeLabel"><g transform="translate(-8, -10.5)" class="label"><foreignObject height="21" width="16"><div style="display: inline-block; white-space: nowrap;" xmlns="http://www.w3.org/1999/xhtml"><span class="edgeLabel">是</span></div></foreignObject></g></g><g class="edgeLabel"><g transform="translate(0, 0)" class="label"><foreignObject height="0" width="0"><div style="display: inline-block; white-space: nowrap;" xmlns="http://www.w3.org/1999/xhtml"><span class="edgeLabel"></span></div></foreignObject></g></g><g class="edgeLabel"><g transform="translate(0, 0)" class="label"><foreignObject height="0" width="0"><div style="display: inline-block; white-space: nowrap;" xmlns="http://www.w3.org/1999/xhtml"><span class="edgeLabel"></span></div></foreignObject></g></g><g transform="translate(281.5, 1152.5)" class="edgeLabel"><g transform="translate(-16, -10.5)" class="label"><foreignObject height="21" width="32"><div style="display: inline-block; white-space: nowrap;" xmlns="http://www.w3.org/1999/xhtml"><span class="edgeLabel">失败</span></div></foreignObject></g></g><g transform="translate(392, 1152.5)" class="edgeLabel"><g transform="translate(-16, -10.5)" class="label"><foreignObject height="21" width="32"><div style="display: inline-block; white-space: nowrap;" xmlns="http://www.w3.org/1999/xhtml"><span class="edgeLabel">成功</span></div></foreignObject></g></g><g class="edgeLabel"><g transform="translate(0, 0)" class="label"><foreignObject height="0" width="0"><div style="display: inline-block; white-space: nowrap;" xmlns="http://www.w3.org/1999/xhtml"><span class="edgeLabel"></span></div></foreignObject></g></g><g class="edgeLabel"><g transform="translate(0, 0)" class="label"><foreignObject height="0" width="0"><div style="display: inline-block; white-space: nowrap;" xmlns="http://www.w3.org/1999/xhtml"><span class="edgeLabel"></span></div></foreignObject></g></g><g class="edgeLabel"><g transform="translate(0, 0)" class="label"><foreignObject height="0" width="0"><div style="display: inline-block; white-space: nowrap;" xmlns="http://www.w3.org/1999/xhtml"><span class="edgeLabel"></span></div></foreignObject></g></g><g transform="translate(382, 1542.5)" class="edgeLabel"><g transform="translate(-16, -10.5)" class="label"><foreignObject height="21" width="32"><div style="display: inline-block; white-space: nowrap;" xmlns="http://www.w3.org/1999/xhtml"><span class="edgeLabel">缺失</span></div></foreignObject></g></g><g transform="translate(529, 1542.5)" class="edgeLabel"><g transform="translate(-16, -10.5)" class="label"><foreignObject height="21" width="32"><div style="display: inline-block; white-space: nowrap;" xmlns="http://www.w3.org/1999/xhtml"><span class="edgeLabel">完整</span></div></foreignObject></g></g><g class="edgeLabel"><g transform="translate(0, 0)" class="label"><foreignObject height="0" width="0"><div style="display: inline-block; white-space: nowrap;" xmlns="http://www.w3.org/1999/xhtml"><span class="edgeLabel"></span></div></foreignObject></g></g><g transform="translate(483.75, 1934.5)" class="edgeLabel"><g transform="translate(-8, -10.5)" class="label"><foreignObject height="21" width="16"><div style="display: inline-block; white-space: nowrap;" xmlns="http://www.w3.org/1999/xhtml"><span class="edgeLabel">是</span></div></foreignObject></g></g><g class="edgeLabel"><g transform="translate(0, 0)" class="label"><foreignObject height="0" width="0"><div style="display: inline-block; white-space: nowrap;" xmlns="http://www.w3.org/1999/xhtml"><span class="edgeLabel"></span></div></foreignObject></g></g><g transform="translate(457.75, 2148.5)" class="edgeLabel"><g transform="translate(-16, -10.5)" class="label"><foreignObject height="21" width="32"><div style="display: inline-block; white-space: nowrap;" xmlns="http://www.w3.org/1999/xhtml"><span class="edgeLabel">拒绝</span></div></foreignObject></g></g><g transform="translate(548.25, 2148.5)" class="edgeLabel"><g transform="translate(-16, -10.5)" class="label"><foreignObject height="21" width="32"><div style="display: inline-block; white-space: nowrap;" xmlns="http://www.w3.org/1999/xhtml"><span class="edgeLabel">同意</span></div></foreignObject></g></g><g transform="translate(611.5, 2041.5)" class="edgeLabel"><g transform="translate(-8, -10.5)" class="label"><foreignObject height="21" width="16"><div style="display: inline-block; white-space: nowrap;" xmlns="http://www.w3.org/1999/xhtml"><span class="edgeLabel">否</span></div></foreignObject></g></g><g class="edgeLabel"><g transform="translate(0, 0)" class="label"><foreignObject height="0" width="0"><div style="display: inline-block; white-space: nowrap;" xmlns="http://www.w3.org/1999/xhtml"><span class="edgeLabel"></span></div></foreignObject></g></g><g transform="translate(314, 2420.5)" class="edgeLabel"><g transform="translate(-16, -10.5)" class="label"><foreignObject height="21" width="32"><div style="display: inline-block; white-space: nowrap;" xmlns="http://www.w3.org/1999/xhtml"><span class="edgeLabel">成功</span></div></foreignObject></g></g><g transform="translate(847, 2420.5)" class="edgeLabel"><g transform="translate(-16, -10.5)" class="label"><foreignObject height="21" width="32"><div style="display: inline-block; white-space: nowrap;" xmlns="http://www.w3.org/1999/xhtml"><span class="edgeLabel">失败</span></div></foreignObject></g></g><g class="edgeLabel"><g transform="translate(0, 0)" class="label"><foreignObject height="0" width="0"><div style="display: inline-block; white-space: nowrap;" xmlns="http://www.w3.org/1999/xhtml"><span class="edgeLabel"></span></div></foreignObject></g></g><g class="edgeLabel"><g transform="translate(0, 0)" class="label"><foreignObject height="0" width="0"><div style="display: inline-block; white-space: nowrap;" xmlns="http://www.w3.org/1999/xhtml"><span class="edgeLabel"></span></div></foreignObject></g></g><g class="edgeLabel"><g transform="translate(0, 0)" class="label"><foreignObject height="0" width="0"><div style="display: inline-block; white-space: nowrap;" xmlns="http://www.w3.org/1999/xhtml"><span class="edgeLabel"></span></div></foreignObject></g></g><g class="edgeLabel"><g transform="translate(0, 0)" class="label"><foreignObject height="0" width="0"><div style="display: inline-block; white-space: nowrap;" xmlns="http://www.w3.org/1999/xhtml"><span class="edgeLabel"></span></div></foreignObject></g></g><g class="edgeLabel"><g transform="translate(0, 0)" class="label"><foreignObject height="0" width="0"><div style="display: inline-block; white-space: nowrap;" xmlns="http://www.w3.org/1999/xhtml"><span class="edgeLabel"></span></div></foreignObject></g></g><g class="edgeLabel"><g transform="translate(0, 0)" class="label"><foreignObject height="0" width="0"><div style="display: inline-block; white-space: nowrap;" xmlns="http://www.w3.org/1999/xhtml"><span class="edgeLabel"></span></div></foreignObject></g></g><g class="edgeLabel"><g transform="translate(0, 0)" class="label"><foreignObject height="0" width="0"><div style="display: inline-block; white-space: nowrap;" xmlns="http://www.w3.org/1999/xhtml"><span class="edgeLabel"></span></div></foreignObject></g></g><g class="edgeLabel"><g transform="translate(0, 0)" class="label"><foreignObject height="0" width="0"><div style="display: inline-block; white-space: nowrap;" xmlns="http://www.w3.org/1999/xhtml"><span class="edgeLabel"></span></div></foreignObject></g></g><g class="edgeLabel"><g transform="translate(0, 0)" class="label"><foreignObject height="0" width="0"><div style="display: inline-block; white-space: nowrap;" xmlns="http://www.w3.org/1999/xhtml"><span class="edgeLabel"></span></div></foreignObject></g></g></g><g class="nodes"><g transform="translate(90.5, 2610)" data-id="EE" data-node="true" id="flowchart-EE-65" class="node default default flowchart-label"><rect height="36" width="111" y="-18" x="-55.5" ry="0" rx="0" style="" class="basic label-container"></rect><g transform="translate(-48, -10.5)" style="" class="label"><rect></rect><foreignObject height="21" width="96"><div style="display: inline-block; white-space: nowrap;" xmlns="http://www.w3.org/1999/xhtml"><span class="nodeLabel">生成工具描述</span></div></foreignObject></g></g><g transform="translate(314, 2499)" data-id="X" data-node="true" id="flowchart-X-49" class="node default default flowchart-label"><rect height="36" width="79" y="-18" x="-39.5" ry="0" rx="0" style="" class="basic label-container"></rect><g transform="translate(-32, -10.5)" style="" class="label"><rect></rect><foreignObject height="21" width="64"><div style="display: inline-block; white-space: nowrap;" xmlns="http://www.w3.org/1999/xhtml"><span class="nodeLabel">处理结果</span></div></foreignObject></g></g><g transform="translate(235.5, 2610)" data-id="FF" data-node="true" id="flowchart-FF-67" class="node default default flowchart-label"><rect height="36" width="79" y="-18" x="-39.5" ry="0" rx="0" style="" class="basic label-container"></rect><g transform="translate(-32, -10.5)" style="" class="label"><rect></rect><foreignObject height="21" width="64"><div style="display: inline-block; white-space: nowrap;" xmlns="http://www.w3.org/1999/xhtml"><span class="nodeLabel">推送结果</span></div></foreignObject></g></g><g transform="translate(380.5, 2610)" data-id="GG" data-node="true" id="flowchart-GG-69" class="node default default flowchart-label"><rect height="36" width="111" y="-18" x="-55.5" ry="0" rx="0" style="" class="basic label-container"></rect><g transform="translate(-48, -10.5)" style="" class="label"><rect></rect><foreignObject height="21" width="96"><div style="display: inline-block; white-space: nowrap;" xmlns="http://www.w3.org/1999/xhtml"><span class="nodeLabel">记录遥测数据</span></div></foreignObject></g></g><g transform="translate(581.5, 2721)" data-id="BB" data-node="true" id="flowchart-BB-59" class="node default default flowchart-label"><rect height="36" width="111" y="-18" x="-55.5" ry="0" rx="0" style="" class="basic label-container"></rect><g transform="translate(-48, -10.5)" style="" class="label"><rect></rect><foreignObject height="21" width="96"><div style="display: inline-block; white-space: nowrap;" xmlns="http://www.w3.org/1999/xhtml"><span class="nodeLabel">更新错误计数</span></div></foreignObject></g></g><g transform="translate(847, 2610)" data-id="Z" data-node="true" id="flowchart-Z-53" class="node default default flowchart-label"><rect height="36" width="111" y="-18" x="-55.5" ry="0" rx="0" style="" class="basic label-container"></rect><g transform="translate(-48, -10.5)" style="" class="label"><rect></rect><foreignObject height="21" width="96"><div style="display: inline-block; white-space: nowrap;" xmlns="http://www.w3.org/1999/xhtml"><span class="nodeLabel">更新任务状态</span></div></foreignObject></g></g><g transform="translate(758.5, 2721)" data-id="CC" data-node="true" id="flowchart-CC-61" class="node default default flowchart-label"><rect height="36" width="143" y="-18" x="-71.5" ry="0" rx="0" style="" class="basic label-container"></rect><g transform="translate(-64, -10.5)" style="" class="label"><rect></rect><foreignObject height="21" width="128"><div style="display: inline-block; white-space: nowrap;" xmlns="http://www.w3.org/1999/xhtml"><span class="nodeLabel">更新自动批准计数</span></div></foreignObject></g></g><g transform="translate(951.5, 2721)" data-id="DD" data-node="true" id="flowchart-DD-63" class="node default default flowchart-label"><rect height="36" width="143" y="-18" x="-71.5" ry="0" rx="0" style="" class="basic label-container"></rect><g transform="translate(-64, -10.5)" style="" class="label"><rect></rect><foreignObject height="21" width="128"><div style="display: inline-block; white-space: nowrap;" xmlns="http://www.w3.org/1999/xhtml"><span class="nodeLabel">更新工具使用状态</span></div></foreignObject></g></g><g transform="translate(189.75, 18)" data-id="A" data-node="true" id="flowchart-A-0" class="node default default flowchart-label"><rect height="36" width="95" y="-18" x="-47.5" ry="0" rx="0" style="" class="basic label-container"></rect><g transform="translate(-40, -10.5)" style="" class="label"><rect></rect><foreignObject height="21" width="80"><div style="display: inline-block; white-space: nowrap;" xmlns="http://www.w3.org/1999/xhtml"><span class="nodeLabel">AI返回消息</span></div></foreignObject></g></g><g transform="translate(189.75, 104)" data-id="B" data-node="true" id="flowchart-B-1" class="node default default flowchart-label"><rect height="36" width="216" y="-18" x="-108" ry="0" rx="0" style="" class="basic label-container"></rect><g transform="translate(-100.5, -10.5)" style="" class="label"><rect></rect><foreignObject height="21" width="201"><div style="display: inline-block; white-space: nowrap;" xmlns="http://www.w3.org/1999/xhtml"><span class="nodeLabel">parseAIResponse解析消息</span></div></foreignObject></g></g><g transform="translate(189.75, 266)" data-id="C" data-node="true" id="flowchart-C-3" class="node default default flowchart-label"><polygon style="" transform="translate(-94,94)" class="label-container" points="94,0 188,-94 94,-188 0,-94"></polygon><g transform="translate(-68.5, -10.5)" style="" class="label"><rect></rect><foreignObject height="21" width="137"><div style="display: inline-block; white-space: nowrap;" xmlns="http://www.w3.org/1999/xhtml"><span class="nodeLabel">是否包含工具调用?</span></div></foreignObject></g></g><g transform="translate(81, 449)" data-id="D" data-node="true" id="flowchart-D-5" class="node default default flowchart-label"><rect height="36" width="111" y="-18" x="-55.5" ry="0" rx="0" style="" class="basic label-container"></rect><g transform="translate(-48, -10.5)" style="" class="label"><rect></rect><foreignObject height="21" width="96"><div style="display: inline-block; white-space: nowrap;" xmlns="http://www.w3.org/1999/xhtml"><span class="nodeLabel">返回普通文本</span></div></foreignObject></g></g><g transform="translate(298.5, 449)" data-id="E" data-node="true" id="flowchart-E-7" class="node default default flowchart-label"><rect height="36" width="224" y="-18" x="-112" ry="0" rx="0" style="" class="basic label-container"></rect><g transform="translate(-104.5, -10.5)" style="" class="label"><rect></rect><foreignObject height="21" width="209"><div style="display: inline-block; white-space: nowrap;" xmlns="http://www.w3.org/1999/xhtml"><span class="nodeLabel">parseToolCalls解析工具调用</span></div></foreignObject></g></g><g transform="translate(298.5, 535)" data-id="F" data-node="true" id="flowchart-F-9" class="node default default flowchart-label"><rect height="36" width="111" y="-18" x="-55.5" ry="0" rx="0" style="" class="basic label-container"></rect><g transform="translate(-48, -10.5)" style="" class="label"><rect></rect><foreignObject height="21" width="96"><div style="display: inline-block; white-space: nowrap;" xmlns="http://www.w3.org/1999/xhtml"><span class="nodeLabel">查找工具标签</span></div></foreignObject></g></g><g transform="translate(235, 681)" data-id="G" data-node="true" id="flowchart-G-11" class="node default default flowchart-label"><polygon style="" transform="translate(-78,78)" class="label-container" points="78,0 156,-78 78,-156 0,-78"></polygon><g transform="translate(-52.5, -10.5)" style="" class="label"><rect></rect><foreignObject height="21" width="105"><div style="display: inline-block; white-space: nowrap;" xmlns="http://www.w3.org/1999/xhtml"><span class="nodeLabel">找到工具标签?</span></div></foreignObject></g></g><g transform="translate(162.5, 848)" data-id="H" data-node="true" id="flowchart-H-13" class="node default default flowchart-label"><rect height="36" width="79" y="-18" x="-39.5" ry="0" rx="0" style="" class="basic label-container"></rect><g transform="translate(-32, -10.5)" style="" class="label"><rect></rect><foreignObject height="21" width="64"><div style="display: inline-block; white-space: nowrap;" xmlns="http://www.w3.org/1999/xhtml"><span class="nodeLabel">结束解析</span></div></foreignObject></g></g><g transform="translate(307.5, 848)" data-id="I" data-node="true" id="flowchart-I-15" class="node default default flowchart-label"><rect height="36" width="111" y="-18" x="-55.5" ry="0" rx="0" style="" class="basic label-container"></rect><g transform="translate(-48, -10.5)" style="" class="label"><rect></rect><foreignObject height="21" width="96"><div style="display: inline-block; white-space: nowrap;" xmlns="http://www.w3.org/1999/xhtml"><span class="nodeLabel">提取工具内容</span></div></foreignObject></g></g><g transform="translate(307.5, 934)" data-id="J" data-node="true" id="flowchart-J-17" class="node default default flowchart-label"><rect height="36" width="184" y="-18" x="-92" ry="0" rx="0" style="" class="basic label-container"></rect><g transform="translate(-84.5, -10.5)" style="" class="label"><rect></rect><foreignObject height="21" width="169"><div style="display: inline-block; white-space: nowrap;" xmlns="http://www.w3.org/1999/xhtml"><span class="nodeLabel">parseToolCall解析参数</span></div></foreignObject></g></g><g transform="translate(307.5, 1059.5)" data-id="K" data-node="true" id="flowchart-K-19" class="node default default flowchart-label"><polygon style="" transform="translate(-57.5,57.5)" class="label-container" points="57.5,0 115,-57.5 57.5,-115 0,-57.5"></polygon><g transform="translate(-32, -10.5)" style="" class="label"><rect></rect><foreignObject height="21" width="64"><div style="display: inline-block; white-space: nowrap;" xmlns="http://www.w3.org/1999/xhtml"><span class="nodeLabel">参数验证</span></div></foreignObject></g></g><g transform="translate(281.5, 1206)" data-id="L" data-node="true" id="flowchart-L-21" class="node default default flowchart-label"><rect height="36" width="79" y="-18" x="-39.5" ry="0" rx="0" style="" class="basic label-container"></rect><g transform="translate(-32, -10.5)" style="" class="label"><rect></rect><foreignObject height="21" width="64"><div style="display: inline-block; white-space: nowrap;" xmlns="http://www.w3.org/1999/xhtml"><span class="nodeLabel">记录错误</span></div></foreignObject></g></g><g transform="translate(455.5, 1206)" data-id="M" data-node="true" id="flowchart-M-23" class="node default default flowchart-label"><rect height="36" width="159" y="-18" x="-79.5" ry="0" rx="0" style="" class="basic label-container"></rect><g transform="translate(-72, -10.5)" style="" class="label"><rect></rect><foreignObject height="21" width="144"><div style="display: inline-block; white-space: nowrap;" xmlns="http://www.w3.org/1999/xhtml"><span class="nodeLabel">添加到工具调用列表</span></div></foreignObject></g></g><g transform="translate(455.5, 1292)" data-id="N" data-node="true" id="flowchart-N-27" class="node default default flowchart-label"><rect height="36" width="149" y="-18" x="-74.5" ry="0" rx="0" style="" class="basic label-container"></rect><g transform="translate(-67, -10.5)" style="" class="label"><rect></rect><foreignObject height="21" width="134"><div style="display: inline-block; white-space: nowrap;" xmlns="http://www.w3.org/1999/xhtml"><span class="nodeLabel">ToolExecutor执行</span></div></foreignObject></g></g><g transform="translate(455.5, 1433.5)" data-id="O" data-node="true" id="flowchart-O-29" class="node default default flowchart-label"><polygon style="" transform="translate(-73.5,73.5)" class="label-container" points="73.5,0 147,-73.5 73.5,-147 0,-73.5"></polygon><g transform="translate(-48, -10.5)" style="" class="label"><rect></rect><foreignObject height="21" width="96"><div style="display: inline-block; white-space: nowrap;" xmlns="http://www.w3.org/1999/xhtml"><span class="nodeLabel">验证必需参数</span></div></foreignObject></g></g><g transform="translate(382, 1635.5)" data-id="P" data-node="true" id="flowchart-P-31" class="node default default flowchart-label"><rect height="36" width="79" y="-18" x="-39.5" ry="0" rx="0" style="" class="basic label-container"></rect><g transform="translate(-32, -10.5)" style="" class="label"><rect></rect><foreignObject height="21" width="64"><div style="display: inline-block; white-space: nowrap;" xmlns="http://www.w3.org/1999/xhtml"><span class="nodeLabel">返回错误</span></div></foreignObject></g></g><g transform="translate(529, 1635.5)" data-id="Q" data-node="true" id="flowchart-Q-33" class="node default default flowchart-label"><polygon style="" transform="translate(-57.5,57.5)" class="label-container" points="57.5,0 115,-57.5 57.5,-115 0,-57.5"></polygon><g transform="translate(-32, -10.5)" style="" class="label"><rect></rect><foreignObject height="21" width="64"><div style="display: inline-block; white-space: nowrap;" xmlns="http://www.w3.org/1999/xhtml"><span class="nodeLabel">权限检查</span></div></foreignObject></g></g><g transform="translate(529, 1821)" data-id="R" data-node="true" id="flowchart-R-35" class="node default default flowchart-label"><polygon style="" transform="translate(-78,78)" class="label-container" points="78,0 156,-78 78,-156 0,-78"></polygon><g transform="translate(-52.5, -10.5)" style="" class="label"><rect></rect><foreignObject height="21" width="105"><div style="display: inline-block; white-space: nowrap;" xmlns="http://www.w3.org/1999/xhtml"><span class="nodeLabel">需要用户批准?</span></div></foreignObject></g></g><g transform="translate(483.75, 1988)" data-id="S" data-node="true" id="flowchart-S-37" class="node default default flowchart-label"><rect height="36" width="79" y="-18" x="-39.5" ry="0" rx="0" style="" class="basic label-container"></rect><g transform="translate(-32, -10.5)" style="" class="label"><rect></rect><foreignObject height="21" width="64"><div style="display: inline-block; white-space: nowrap;" xmlns="http://www.w3.org/1999/xhtml"><span class="nodeLabel">显示通知</span></div></foreignObject></g></g><g transform="translate(483.75, 2095)" data-id="T" data-node="true" id="flowchart-T-39" class="node default default flowchart-label"><rect height="36" width="111" y="-18" x="-55.5" ry="0" rx="0" style="" class="basic label-container"></rect><g transform="translate(-48, -10.5)" style="" class="label"><rect></rect><foreignObject height="21" width="96"><div style="display: inline-block; white-space: nowrap;" xmlns="http://www.w3.org/1999/xhtml"><span class="nodeLabel">等待用户确认</span></div></foreignObject></g></g><g transform="translate(457.75, 2202)" data-id="U" data-node="true" id="flowchart-U-41" class="node default default flowchart-label"><rect height="36" width="79" y="-18" x="-39.5" ry="0" rx="0" style="" class="basic label-container"></rect><g transform="translate(-32, -10.5)" style="" class="label"><rect></rect><foreignObject height="21" width="64"><div style="display: inline-block; white-space: nowrap;" xmlns="http://www.w3.org/1999/xhtml"><span class="nodeLabel">取消执行</span></div></foreignObject></g></g><g transform="translate(593.5, 2202)" data-id="V" data-node="true" id="flowchart-V-43" class="node default default flowchart-label"><rect height="36" width="79" y="-18" x="-39.5" ry="0" rx="0" style="" class="basic label-container"></rect><g transform="translate(-32, -10.5)" style="" class="label"><rect></rect><foreignObject height="21" width="64"><div style="display: inline-block; white-space: nowrap;" xmlns="http://www.w3.org/1999/xhtml"><span class="nodeLabel">执行工具</span></div></foreignObject></g></g><g transform="translate(593.5, 2327.5)" data-id="W" data-node="true" id="flowchart-W-47" class="node default default flowchart-label"><polygon style="" transform="translate(-57.5,57.5)" class="label-container" points="57.5,0 115,-57.5 57.5,-115 0,-57.5"></polygon><g transform="translate(-32, -10.5)" style="" class="label"><rect></rect><foreignObject height="21" width="64"><div style="display: inline-block; white-space: nowrap;" xmlns="http://www.w3.org/1999/xhtml"><span class="nodeLabel">执行结果</span></div></foreignObject></g></g><g transform="translate(847, 2499)" data-id="Y" data-node="true" id="flowchart-Y-51" class="node default default flowchart-label"><rect height="36" width="79" y="-18" x="-39.5" ry="0" rx="0" style="" class="basic label-container"></rect><g transform="translate(-32, -10.5)" style="" class="label"><rect></rect><foreignObject height="21" width="64"><div style="display: inline-block; white-space: nowrap;" xmlns="http://www.w3.org/1999/xhtml"><span class="nodeLabel">错误处理</span></div></foreignObject></g></g><g transform="translate(1140.5, 2721)" data-id="AA" data-node="true" id="flowchart-AA-57" class="node default default flowchart-label"><rect height="36" width="95" y="-18" x="-47.5" ry="0" rx="0" style="" class="basic label-container"></rect><g transform="translate(-40, -10.5)" style="" class="label"><rect></rect><foreignObject height="21" width="80"><div style="display: inline-block; white-space: nowrap;" xmlns="http://www.w3.org/1999/xhtml"><span class="nodeLabel">保存检查点</span></div></foreignObject></g></g></g></g></g></svg>